<?xml version="1.0" encoding="UTF-8" standalone="no"?>
<!-- Created with Inkscape (http://www.inkscape.org/) -->

<svg
   width="1000.0001"
   height="1000.0001"
   viewBox="0 0 264.58335 264.58335"
   version="1.1"
   id="svg1"
   xml:space="preserve"
   xmlns="http://www.w3.org/2000/svg"
   xmlns:svg="http://www.w3.org/2000/svg"><defs
     id="defs1"><filter
       style="color-interpolation-filters:sRGB"
       id="filter9"
       x="-0.00022688647"
       y="-0.00058167501"
       width="1.0004538"
       height="1.0011634"><feGaussianBlur
         stdDeviation="0.081910684"
         id="feGaussianBlur9" /></filter><filter
       style="color-interpolation-filters:sRGB"
       id="filter10"
       x="-0.0054228669"
       y="-0.013902751"
       width="1.0108457"
       height="1.0278055"><feGaussianBlur
         stdDeviation="1.9577665"
         id="feGaussianBlur10" /></filter><filter
       style="color-interpolation-filters:sRGB"
       id="filter9-0"
       x="-0.00038177898"
       y="-0.0012687668"
       width="1.0007636"
       height="1.0025375"><feGaussianBlur
         stdDeviation="0.081910684"
         id="feGaussianBlur9-9" /></filter><filter
       style="color-interpolation-filters:sRGB"
       id="filter9-0-4"
       x="-0.015377267"
       y="-0.051103302"
       width="1.0307545"
       height="1.1022066"><feGaussianBlur
         stdDeviation="3.299193"
         id="feGaussianBlur9-9-6" /></filter><filter
       style="color-interpolation-filters:sRGB"
       id="filter11"
       x="-0.024004243"
       y="-0.0074760005"
       width="1.0480085"
       height="1.014952"><feGaussianBlur
         stdDeviation="2.0534996"
         id="feGaussianBlur11" /></filter><filter
       style="color-interpolation-filters:sRGB"
       id="filter12"
       x="-0.01567479"
       y="-0.015364811"
       width="1.0313496"
       height="1.0307296"><feGaussianBlur
         stdDeviation="4.3399653"
         id="feGaussianBlur12" /></filter><filter
       style="color-interpolation-filters:sRGB"
       id="filter14"
       x="-0.079904659"
       y="-0.079904659"
       width="1.1598093"
       height="1.1598093"><feGaussianBlur
         stdDeviation="5.5133764"
         id="feGaussianBlur14" /></filter></defs><g
     id="layer1"
     style="display:inline"><g
       id="g15"
       transform="matrix(0.26458327,0,0,0.26458327,-0.09178616,-0.53378104)"><circle
         style="display:inline;mix-blend-mode:normal;fill:none;fill-opacity:1;stroke:#000000;stroke-width:109.802;stroke-dasharray:none;stroke-opacity:0.723608;filter:url(#filter14)"
         id="path1-4"
         cx="500.34702"
         cy="502.01755"
         r="426.34" /><circle
         style="display:inline;fill:none;fill-opacity:1;stroke:#ffb9b9;stroke-width:109.802;stroke-dasharray:none;stroke-opacity:1"
         id="path1-5"
         cx="496.67786"
         cy="496.97672"
         r="426.34" /><circle
         style="display:inline;fill:none;fill-opacity:1;stroke:#fe0000;stroke-width:109.802;stroke-dasharray:none;stroke-opacity:1"
         id="path1"
         cx="497.5"
         cy="497.5"
         r="426.34" /></g><g
       id="g13"
       transform="matrix(0.26458327,0,0,0.26458327,-0.09178616,-0.53378104)"><path
         d="M 833.126,599.46461 751.02179,740.71107 593.31088,648.36993 V 843.87384 H 413.24704 V 648.36993 L 252.74,740.71107 168.6248,599.46461 337.17807,502.31636 168.6248,404.36122 252.74,263.87816 413.24704,355.80955 V 165.96658 H 593.31088 V 355.80955 L 751.02179,263.87816 833.126,404.36122 666.21747,502.31636 Z"
         id="text2-2"
         style="-inkscape-font-specification:'Tahoma Bold';display:inline;fill:#000000;fill-opacity:0.489443;stroke-width:5.43102;filter:url(#filter12)"
         aria-label="*" /><path
         d="M 828.626,593.24874 746.52179,734.4952 588.81088,642.15406 V 837.65797 H 408.74704 V 642.15406 L 248.24,734.4952 164.1248,593.24874 332.67807,496.10049 164.1248,398.14535 248.24,257.66229 408.74704,349.59368 V 159.75071 H 588.81088 V 349.59368 L 746.52179,257.66229 828.626,398.14535 661.71747,496.10049 Z"
         id="text2-0"
         style="-inkscape-font-specification:'Tahoma Bold';display:inline;fill:#ff8d8d;fill-opacity:1;stroke-width:5.43102"
         aria-label="*" /><path
         d="M 829.86175,594.03809 747.75754,735.28455 590.04663,642.94341 V 838.44732 H 409.98279 V 642.94341 L 249.47575,735.28455 165.36055,594.03809 333.91382,496.88984 165.36055,398.9347 249.47575,258.45164 409.98279,350.38303 V 160.54006 h 180.06384 v 189.84297 l 157.71091,-91.93139 82.10421,140.48306 -166.90853,97.95514 z"
         id="text2"
         style="-inkscape-font-specification:'Tahoma Bold';display:inline;fill:#fe0000;stroke-width:5.43102"
         aria-label="*" /></g><g
       id="g12"
       transform="matrix(0.26458327,0,0,0.26458327,-0.09178616,-0.53378104)"><g
         id="layer2"
         style="display:inline"><path
           id="path10"
           style="display:inline;fill:#010101;fill-opacity:0.637236;stroke-width:0.264583px;filter:url(#filter11)"
           d="m 521.97692,188.19678 c -6.51361,0.19104 -9.16378,7.08071 -9.16378,7.08071 0,0 -2.06382,-3.28364 -7.0559,-3.69952 -3.3132,-0.27602 -7.27168,-1.465 -10.50582,-0.12144 -2.81928,1.17122 -6.38772,6.56394 -6.38772,6.56394 0,0 -0.6346,-2.89914 -3.62562,-3.43028 -8.06463,-1.43214 -12.85067,-1.38779 -16.60415,-0.047 -2.44667,0.87394 -5.33714,5.41104 -5.33714,5.41104 0,0 -5.13145,-3.32642 -7.52099,-3.01222 -7.35869,0.96761 -17.51222,13.84071 -20.20239,22.77743 -2.43037,8.0738 -2.37735,37.2468 1.46916,55.27104 2.45015,11.481 7.20948,20.78918 13.51804,30.6896 1.34402,2.10924 4.80405,6.66914 7.999,10.82156 1.81268,0.11525 3.91705,0.18162 5.44308,0.31626 -7.09453,-8.3313 -12.01829,-19.4583 -17.24495,-32.85122 -4.43668,-22.45057 -2.70891,-58.35051 -1.92029,-59.74209 1.35052,-2.38308 3.50981,-1.79465 6.50244,-1.83245 0.27227,-2.25805 -0.21449,-3.89963 0.47129,-4.73511 1.28656,-1.56741 8.42459,-0.72932 9.53172,1.11001 1.05953,1.76024 -0.29764,23.8038 6.89312,21.03282 3.545,-1.36607 -0.21505,-17.56227 1.36116,-19.44791 1.98858,-2.37897 6.12011,-0.17725 12.76614,-0.26975 1.64388,-0.0229 1.55029,-4.6824 1.55029,-4.6824 0,0 -1.02189,27.16671 1.0449,27.38593 2.8504,0.30234 2.62975,-16.61635 4.58008,-19.4014 1.30703,-1.86642 11.41053,-3.96824 12.79716,-2.90525 1.55842,1.19473 -1.6183,10.10446 -1.84847,16.17679 -0.23727,6.2596 2.44278,13.03563 0.23564,18.83089 -0.77156,2.02601 -8.30454,3.2449 -12.39717,2.29133 -2.08674,-0.4862 -3.03996,-4.19544 -5.15318,-3.84162 -1.40286,0.23489 -2.40398,3.52536 -2.40398,3.52536 0,0 -7.98581,1.80202 -10.16062,-0.69453 -2.86862,-3.2929 -0.17864,-12.50498 -2.56109,-12.66692 -3.10778,-0.21125 -2.63497,5.51497 -3.07268,9.73325 -0.16413,1.58232 -9.00616,2.62001 -9.78958,-0.002 -3.11748,-10.43464 -3.90054,-26.2294 -3.90054,-26.2294 l -3.6313,-0.21136 c 0,0 -0.13794,25.61194 5.14749,32.61713 7.01951,9.30356 9.3604,13.22252 23.26163,13.06019 0.88754,3.81034 -1.39595,9.48988 1.04283,14.70814 6.47304,4.15823 10.74386,-10.24635 12.98577,-12.96251 2.1892,-2.65234 11.33176,-10.82228 19.11925,-11.51248 12.81562,-1.13585 12.37477,13.82292 18.9177,5.33611 4.00878,-5.19976 -4.67758,-5.95342 -4.49946,-9.4325 0.12766,-2.49355 7.15838,-0.54311 3.89847,-6.39651 -10.31988,-1.05536 -14.28776,-0.83853 -20.01532,-3.07888 -3.02494,-6.54518 -2.90087,-10.46411 -2.84737,-19.11666 6.48354,-0.929 1.33475,6.60919 32.64193,6.381 2.85905,-0.0208 2.23586,-1.51965 4.10001,-2.73781 2.44935,-0.48586 6.18866,1.43035 7.9928,4.42195 5.92575,9.82603 8.18973,35.61228 6.16448,40.48952 -2.43806,5.87134 -16.84865,14.80499 -27.48928,20.48763 -1.11089,15.29183 4.16563,89.57712 10.03866,173.32534 0.85115,-0.30357 1.83678,-0.58446 2.6479,-0.89452 1.67941,-0.64194 3.88324,-1.33237 6.14123,-2.07067 -0.57262,-8.59151 -1.1352,-17.18806 -1.74304,-25.70128 -1.68769,-0.1874 -3.5051,-0.27013 -5.46685,-0.22324 -0.26386,-8.85504 -0.55931,-12.7108 -0.9679,-25.12043 1.4162,0.0941 3.02681,0.38294 4.60178,0.63666 -2.99751,-39.14524 -6.34401,-77.12206 -10.21643,-111.83504 12.49539,-13.59136 26.76447,-20.8816 29.86226,-28.18174 2.14857,-5.06328 -4.2,-37.59598 -9.06508,-47.87666 -1.61933,-2.71908 -3.08876,-2.54226 -4.01422,-4.26641 -1.44702,-13.37097 -3.36835,-26.63302 -6.53811,-31.0441 -3.40807,-4.74281 -15.86645,-8.36785 -21.37699,-8.20622 z m 21.34857,231.41017 c 0.62864,8.20936 1.23922,16.3917 1.83297,24.70701 11.9388,1.32596 17.19509,8.0313 18.19062,13.31805 1.18985,6.31873 -8.48119,9.77841 -16.44758,12.38323 0.73853,11.08077 1.50351,22.05099 2.18591,33.19901 3.71162,-0.99528 7.04778,-1.98588 9.37773,-2.95848 26.39342,-11.01758 29.95987,-14.70938 34.1452,-23.15724 2.87991,-5.81297 2.5455,-21.76028 -0.4222,-28.27115 -6.71747,-14.73749 -31.78902,-26.47001 -48.86265,-29.22043 z m 5.76192,83.6073 c -2.62088,0.70277 -5.67076,1.40668 -8.73796,2.11356 3.01284,43.35768 5.78241,85.6888 8.26099,128.07591 2.52281,-0.7302 5.11491,-1.46503 7.26881,-2.23604 -0.34868,-7.60444 -0.75606,-15.41931 -1.12706,-23.13296 -1.88102,-0.29404 -3.74111,-0.49217 -5.35937,-0.5302 0.28184,-7.21794 1.07832,-10.52748 0.66973,-22.3914 1.15398,0.26442 2.39599,0.64722 3.60391,0.98134 -1.38336,-27.4291 -2.87836,-55.09845 -4.57905,-82.88021 z m 4.57905,82.88021 c 0.37079,7.35187 0.73572,14.6638 1.08573,21.94026 6.3816,0.99757 13.30893,3.50437 14.47818,8.10028 1.89644,7.45427 -3.72654,11.58744 -13.35112,15.03268 0.47236,10.3019 0.87545,20.11041 1.30896,30.15733 0.73808,-0.31216 1.60997,-0.5966 2.24741,-0.92914 12.75094,-6.652 27.77655,-18.52983 34.14469,-30.79761 2.98876,-5.7577 3.61247,-13.56314 0.66921,-20.08508 -3.78336,-8.38334 -24.23799,-18.89762 -40.58306,-23.41872 z m 3.52175,75.23055 c -2.00101,0.84629 -4.30259,1.62693 -6.91224,2.33991 3.1379,59.20865 4.87038,110.3218 2.82567,135.37778 -1.24495,4.07339 -7.7812,7.22791 -16.80879,9.39943 -0.0415,-0.0811 -0.12169,-0.19462 -0.16123,-0.27389 -13.0368,-26.13205 -16.98422,-37.35248 -33.31167,-40.26007 -11.24449,-2.00245 -17.48328,2.60721 -23.60734,7.90494 -7.9717,6.89608 -13.39077,12.962 -14.51694,24.19284 -0.19501,1.94475 -0.2368,3.44648 -0.30024,5.01623 -2.4723,-1.44452 -4.31593,-3.09449 -5.09117,-5.02812 v -5.1e-4 c -0.50948,-52.15451 0.3877,-87.2069 1.71566,-121.67113 -3.1995,0.74479 -6.34559,1.5236 -9.19685,2.4908 -0.32421,12.5811 -0.48437,23.21299 -0.70177,34.62321 1.54038,0.18733 3.15576,0.45821 4.54081,0.52814 -0.0162,12.81185 -0.59663,22.22583 -0.66973,36.15335 -1.38477,-0.4979 -2.95936,-1.14245 -4.47001,-1.73427 -0.17067,20.44046 -0.0808,37.65043 0.45837,48.89314 1.37202,5.4107 6.44871,9.38398 13.63069,12.20908 0.52609,3.88377 1.775,7.05368 4.10828,11.1125 1.65094,2.87189 4.18787,3.93383 6.27817,2.94659 2.08825,-0.98627 1.71049,-6.7138 1.71049,-6.7138 h -5.2e-4 c 0,0 -0.84082,4.59916 -2.64428,4.73821 -2.95645,0.22794 -4.77163,-4.51003 -5.4746,-7.01146 -0.41126,-1.46341 -0.6628,-2.77013 -0.8568,-4.03231 15.69368,5.07632 39.34528,5.45469 59.21809,2.71921 3.74711,6.6174 7.60531,13.27108 11.39983,19.17248 2.91315,4.53069 7.8623,10.16238 10.97969,11.80703 3.29297,1.73726 10.83163,1.78475 15.18925,-1.2082 18.45605,-12.67607 27.9428,-28.1055 29.9837,-32.34273 1.83421,-3.80806 6.46633,-18.99123 2.42879,-30.56971 -1.42788,-4.09471 -13.63922,-18.68832 -21.54855,-21.02869 -2.64624,-0.78301 -10.71486,-2.14078 -14.37535,-2.74712 -1.11634,-30.47708 -2.29172,-61.59814 -3.81941,-97.00286 z m -106.66584,89.05864 c 0.086,-10.3 0.37016,-22.94003 0.59893,-34.94722 -9.42163,-1.14571 -20.53371,-4.53563 -20.23081,-12.86174 0.41176,-11.31724 8.8818,-17.67349 20.93258,-21.76147 0.23682,-9.19015 0.56414,-19.20752 0.84801,-28.8556 -22.25358,6.38662 -48.33508,27.83954 -48.56086,49.27813 -0.28043,26.62707 27.3133,41.66575 46.41215,49.1479 z m 2.14871,-98.42603 c 0.9923,-0.28478 2.01675,-0.71201 2.99103,-0.93483 1.87243,-0.42819 4.41134,-0.81799 6.49366,-1.23248 0.32333,-7.49858 0.6352,-14.76477 0.97152,-22.75055 1.68708,-40.05932 2.96583,-74.07154 4.00389,-105.54033 -3.57369,0.89213 -6.95814,1.95259 -10.09241,3.2241 -0.39726,10.19453 -0.73723,19.7642 -1.12293,30.10772 1.6683,0.2186 3.42758,0.37849 5.32474,0.44752 -0.0162,12.81189 -2.23374,20.04305 -2.30684,33.97053 -1.43158,-0.15108 -2.83839,-0.38773 -4.23953,-0.63975 -0.7679,21.86722 -1.41193,42.5744 -2.02313,63.34807 z m 2.02313,-63.34807 c 0.39606,-11.27835 0.80079,-22.49248 1.22163,-33.7783 -10.3584,-1.35726 -16.11808,-5.66535 -14.53555,-14.03377 1.53687,-8.12679 7.68868,-12.84079 15.65848,-16.07395 0.47157,-12.10169 0.87351,-20.58008 1.34772,-32.243 -2.86994,0.73802 -5.63858,1.47643 -8.05997,2.22209 -8.08985,2.49127 -40.16194,22.92859 -41.18353,44.75592 -1.05814,22.60699 19.38308,44.4441 45.55122,49.15101 z m 3.69228,-96.12902 c 3.00412,-0.77251 6.23609,-1.54651 9.61647,-2.32078 1.22116,-44.88073 1.77128,-84.81985 1.2702,-123.03332 -1.76291,0.0902 -3.67085,0.091 -5.56503,0.0982 -0.46141,10.04318 -0.51159,11.09422 -1.13481,25.0977 0.82915,0.23129 1.64332,0.42662 2.46548,0.67231 0.0991,8.30875 1.05752,19.98755 0.80408,28.86594 -1.47314,-0.52984 -2.95503,-1.12858 -4.43383,-1.68414 -0.95588,21.92226 -1.95916,46.15033 -3.02256,72.30411 z m 3.02256,-72.30411 c 0.36823,-8.44522 0.82916,-20.3248 1.16427,-27.85411 -13.35847,-3.72621 -27.13751,-5.92996 -25.06049,-16.34371 1.84973,-9.27416 14.67051,-8.71004 26.1953,-8.75399 0.85366,-18.58083 1.91358,-41.63932 1.91358,-41.63932 0,0 -3.37416,-4.29044 -7.0621,-9.08368 -15.68797,-0.99741 -39.8043,-1.26867 -43.08213,0.45785 -4.78397,2.51989 -16.227,18.543 -21.49636,33.14217 -1.17279,3.24923 -1.24034,15.17359 1.65158,21.36148 11.22817,24.0253 38.7456,38.55858 65.77635,48.71331 z m 7.86411,-53.04999 c 0.3027,-0.0155 0.65859,0.003 0.9555,-0.0171 2.32053,1.64345 0.59015,5.57331 0.59015,5.57331 0,0 3.52089,-2.80859 4.11551,-6.56549 4.36978,-0.5896 8.7482,-1.07444 13.04055,-3.40651 2.26737,3.37178 -0.99064,9.56375 -0.99064,9.56375 0,0 5.68725,-2.26977 7.73338,-12.30054 5.50687,-2.01166 16.15334,-12.32512 16.5318,-14.83785 0.37847,-2.51273 -10.90087,-14.74222 -13.51338,-17.76687 -2.46679,-2.85595 -23.9995,-6.79378 -25.63306,-9.1674 -0.35144,-0.51065 -3.55759,-0.98311 -8.10028,-1.3839 1.35441,1.59057 2.76035,3.11555 4.29276,4.49533 0.49018,15.51004 0.77903,30.65877 0.97771,45.81323 z m -1.2702,123.03332 c -0.28085,10.3218 -0.50594,20.24933 -0.87178,31.33968 9.1844,-2.29275 19.24074,-3.74274 27.63035,-6.042 11.49909,-3.15149 30.47784,-6.64729 45.58792,-10.12962 -0.80827,-11.63159 -1.44922,-21.1128 -2.23708,-32.34738 -19.19774,6.84715 -47.93647,12.10042 -70.10941,17.17932 z m -5.84719,159.63056 c -0.40935,9.49341 -0.77826,19.25165 -1.13585,28.53211 12.38397,-2.88275 26.80244,-4.45063 40.16861,-6.54534 13.97818,-2.19059 35.13374,-4.2999 49.08744,-8.11216 -0.52673,-9.9389 -1.05863,-19.8824 -1.66553,-30.2612 -1.76937,0.51209 -3.3241,1.03431 -5.24309,1.5508 -23.30218,6.27212 -57.97737,10.21097 -81.21158,14.83579 z m 31.55208,126.04295 c 2.32647,-0.21125 4.70949,0.0203 6.82801,0.71314 3.41722,1.11756 5.47401,4.5936 8.07806,7.14737 2.1412,2.09987 8.42155,13.82896 15.71273,26.87588 -19.61953,2.47248 -44.02627,1.34238 -56.77638,-4.02922 0.1785,-1.97778 0.52502,-3.90671 1.06247,-5.97534 1.39653,-5.37516 5.30527,-11.51459 8.0884,-14.56552 2.84037,-3.11371 6.78284,-6.09167 10.5177,-8.22172 1.89238,-1.07926 4.16254,-1.73333 6.48901,-1.94459 z m 68.12039,4.30103 c 2.73059,0.14444 5.95968,0.99213 8.06824,3.80856 2.16276,2.88878 2.11359,15.35688 1.28209,23.67555 -0.52584,5.26076 -5.90605,14.73532 -8.71161,16.95659 -2.88975,2.28792 -9.7947,2.11442 -12.94185,0.51677 -2.49574,-1.26702 -7.14475,-6.96053 -10.49548,-12.03751 13.11957,-2.95461 22.70581,-7.35537 23.56445,-12.56874 -0.21058,-5.95739 -0.54017,-14.05055 -0.76584,-20.35122 z" /></g><path
         id="path2"
         style="display:inline;fill:#ffffff;fill-opacity:1;stroke:none;stroke-width:0.264583px;stroke-linecap:butt;stroke-linejoin:miter;stroke-opacity:1"
         d="m 463.88414,323.31318 c 0,0 -12.16573,-15.36107 -15.06117,-19.90505 -6.3086,-9.90046 -11.06777,-19.20843 -13.51792,-30.68947 -3.84655,-18.02432 -3.8994,-47.19723 -1.46899,-55.27107 2.69017,-8.93672 12.84391,-21.80984 20.2026,-22.77745 2.38954,-0.3142 7.52098,3.01223 7.52098,3.01223 0,0 2.89005,-4.53708 5.33672,-5.41102 3.75352,-1.34074 8.53978,-1.38534 16.60445,0.0468 2.99102,0.53114 3.62569,3.43038 3.62569,3.43038 0,0 3.56826,-5.39243 6.38758,-6.56365 3.23414,-1.34356 7.19242,-0.15499 10.50566,0.12103 4.99208,0.41588 7.05606,3.69996 7.05606,3.69996 0,0 2.64994,-6.8901 9.16359,-7.08114 5.51054,-0.16163 17.9688,3.46345 21.37691,8.20626 3.16976,4.41112 5.09154,17.67347 6.53856,31.04448 0.92546,1.72415 2.39456,1.54698 4.01389,4.26606 4.86508,10.28076 11.21365,42.81334 9.06508,47.87662 -3.09779,7.30018 -17.36647,14.59053 -29.8619,28.18197 17.02502,152.61525 24.94306,364.23039 29.48465,492.71345 -2.90574,17.64273 -104.60711,26.42082 -111.61324,-1.20851 -4.04414,-84.33017 14.6408,-473.69188 14.6408,-473.69188 z" /><path
         style="display:inline;fill:#000000;fill-opacity:1;stroke:#000000;stroke-width:0.264583px;stroke-linecap:butt;stroke-linejoin:miter;stroke-opacity:1"
         d="m 457.56699,797.72238 c 6.87118,17.13843 89.01168,14.70712 93.79741,-0.95148 6.96898,-85.39867 -27.78969,-461.37128 -25.02798,-499.38746 10.64067,-5.68268 25.05121,-14.61627 27.48927,-20.48765 2.02525,-4.87724 -0.23855,-30.66381 -6.16434,-40.48988 -1.80414,-2.9916 -5.54388,-4.90761 -7.99323,-4.42175 -1.86415,1.2182 -1.24073,2.71719 -4.09978,2.73803 -31.30734,0.22819 -26.15824,-7.31015 -32.64182,-6.38115 -0.0535,8.65259 -0.17795,12.57114 2.84699,19.11636 5.72756,2.24035 9.69563,2.02386 20.01555,3.07922 3.25995,5.8534 -3.77055,3.90263 -3.89821,6.39618 -0.17812,3.47908 8.50785,4.23316 4.49907,9.43292 -6.54297,8.48685 -6.10195,-6.47242 -18.91765,-5.33657 -7.78749,0.6902 -16.93002,8.86039 -19.11922,11.51273 -2.24191,2.7162 -6.51285,17.12071 -12.98593,12.96248 -2.43878,-5.2183 -0.1549,-10.89774 -1.04244,-14.70812 -13.90127,0.16233 -16.24232,-3.75645 -23.26187,-13.06005 -5.28543,-7.00523 -5.14721,-32.61743 -5.14721,-32.61743 l 3.63092,0.21127 c 0,0 0.78323,15.7949 3.90071,26.22962 0.78342,2.62222 9.62523,1.58432 9.78936,0.002 0.43771,-4.21832 -0.0349,-9.94423 3.07292,-9.73298 2.38245,0.16194 -0.30739,9.37371 2.56123,12.66665 2.17485,2.49655 10.16046,0.69479 10.16046,0.69479 0,0 1.00098,-3.29089 2.40388,-3.52578 2.11322,-0.35382 3.06675,3.35563 5.15349,3.84183 4.09267,0.95357 11.62528,-0.26545 12.39688,-2.29146 2.20714,-5.7953 -0.47293,-12.57133 -0.23566,-18.83097 0.23017,-6.07237 3.40679,-14.98206 1.84833,-16.17679 -1.38663,-1.06299 -11.49013,1.03906 -12.79716,2.90548 -1.95037,2.78509 -1.72944,19.70388 -4.57984,19.40154 -2.06679,-0.21922 -1.04497,-27.38602 -1.04497,-27.38602 0,0 0.0935,4.65928 -1.55038,4.68217 -6.64607,0.0925 -10.77726,-2.10925 -12.76588,0.26976 -1.57621,1.88564 2.18363,18.08177 -1.36137,19.44784 -7.1908,2.77098 -5.83334,-19.27208 -6.89287,-21.03232 -1.10713,-1.83933 -8.24523,-2.6775 -9.53179,-1.11009 -0.68578,0.83548 -0.19905,2.47669 -0.47132,4.73474 -2.99267,0.0378 -5.15178,-0.55038 -6.5023,1.8327 -0.78862,1.39158 -2.51641,37.29125 1.92031,59.7419 6.22451,15.94992 11.97849,28.7396 21.53758,37.3468 2.81709,89.13744 0.72419,165.81813 -5.16799,305.72669 -2.34333,55.64186 -4.57819,95.66186 -3.82315,172.95376 z"
         id="path3" /><path
         style="display:inline;fill:#f9f9f9;fill-opacity:1;stroke:none;stroke-width:0.264583px;stroke-linecap:butt;stroke-linejoin:miter;stroke-opacity:1"
         d="m 474.97073,816.55924 c 0,0 0.3778,5.7276 -1.71045,6.71387 -2.0903,0.98724 -4.62701,-0.0749 -6.27795,-2.94679 -4.1709,-7.2554 -5.15283,-11.33617 -4.02412,-22.59233 1.12617,-11.23088 6.54543,-17.29679 14.51717,-24.19291 6.1241,-5.29777 12.36283,-9.90715 23.6074,-7.9047 16.32749,2.90763 20.27446,14.12777 33.3113,40.25994 2.71245,5.43707 10.0248,15.21315 13.39354,16.92335 3.14715,1.59769 10.05225,1.77138 12.942,-0.51654 2.80556,-2.22127 8.18596,-11.69574 8.7118,-16.9565 0.8315,-8.31871 0.88061,-20.78659 -1.28215,-23.67541 -4.26719,-5.69972 -13.13649,-3.36688 -13.13649,-3.36688 l 1.32581,-22.74304 c 0,0 14.00136,2.26654 17.29709,3.24174 7.90937,2.34037 20.12037,16.93393 21.54825,21.02868 4.03754,11.57852 -0.59422,26.76178 -2.42843,30.56988 -2.0409,4.23723 -11.52761,19.66646 -29.98374,32.34257 -4.35766,2.99295 -11.89645,2.94577 -15.18946,1.20847 -3.11739,-1.64465 -8.06643,-7.27674 -10.97962,-11.80747 -12.33143,-19.17838 -26.27182,-47.32533 -29.73641,-50.72305 -2.60405,-2.55377 -4.66073,-6.02984 -8.07799,-7.1474 -4.23704,-1.38566 -9.53203,-0.92705 -13.31679,1.23146 -3.73486,2.13005 -7.67749,5.10756 -10.5179,8.22127 -2.78313,3.05093 -6.69146,9.19085 -8.08799,14.56601 -1.34052,5.15962 -1.8903,9.35212 -0.0241,15.99272 0.70297,2.50143 2.51824,7.23943 5.47469,7.01149 1.80346,-0.13905 2.6445,-4.73843 2.6445,-4.73843 z"
         id="path4" /><path
         style="display:inline;fill:#ffffff;fill-opacity:1;stroke:none;stroke-width:0.264583px;stroke-linecap:butt;stroke-linejoin:miter;stroke-opacity:1"
         d="m 453.92464,713.69274 c -9.85668,-0.49765 -25.12413,-3.70269 -24.77167,-13.39011 0.88627,-24.35935 38.88338,-25.87402 70.29804,-30.79723 17.55671,-2.75143 46.64085,-5.32687 58.24697,-11.38161 12.75098,-6.652 27.77663,-18.52943 34.14477,-30.79725 2.9888,-5.75774 3.61282,-13.56322 0.66952,-20.08516 -4.06295,-9.00292 -27.41824,-20.55793 -44.18736,-24.40029 0.40859,11.86396 -0.38767,15.17379 -0.66951,22.39177 7.10842,0.16706 18.32366,2.67965 19.83755,8.63027 2.6185,10.29251 -8.98162,14.27558 -25.86309,18.81946 -25.39068,6.83425 -64.94041,10.86183 -87.70521,16.06812 -22.82385,5.21978 -51.31606,27.81829 -51.55191,50.21292 -0.30261,28.73329 31.99018,44.08964 50.8824,50.88239 0.0731,-13.92756 0.65331,-23.34135 0.6695,-36.15328 z"
         id="path5" /><path
         style="display:inline;fill:#ffffff;fill-opacity:1;stroke:none;stroke-width:0.264583px;stroke-linecap:butt;stroke-linejoin:miter;stroke-opacity:1"
         d="m 459.50304,553.00709 c -13.6766,-0.49765 -21.6978,-4.76526 -19.86035,-14.48151 3.69458,-19.53662 33.42636,-19.87129 53.38127,-25.34021 17.13899,-4.69717 51.62373,-10.15878 63.70399,-15.20152 26.39354,-11.01762 29.95944,-14.70952 34.14477,-23.15742 2.87991,-5.81297 2.54582,-21.75983 -0.42188,-28.2707 -7.33717,-16.09705 -36.69518,-28.74346 -53.4643,-29.85731 0.40859,12.40967 0.70373,16.2652 0.96759,25.12028 15.83966,-0.37864 22.52122,7.50747 23.65747,13.5416 1.5271,8.1097 -14.98435,11.54706 -22.58888,14.45384 -24.5612,9.38833 -68.11545,15.74367 -90.43372,22.61654 -8.08989,2.49127 -40.16193,22.92845 -41.18356,44.7559 -1.11479,23.81753 21.62183,46.81815 49.79099,49.79099 0.0731,-13.92756 2.29042,-21.15855 2.30661,-33.97048 z"
         id="path5-5" /><path
         style="display:inline;fill:#ffffff;fill-opacity:1;stroke:none;stroke-width:0.264583px;stroke-linecap:butt;stroke-linejoin:miter;stroke-opacity:1"
         d="m 463.30123,390.72282 c -14.06756,-4.2039 -29.73176,-5.95615 -27.52581,-17.01634 2.20595,-11.06019 20.16817,-8.04252 32.71575,-8.86915 2.32053,1.64345 0.59046,5.57323 0.59046,5.57323 0,0 3.52051,-2.80812 4.11513,-6.56506 4.36982,-0.5896 8.74825,-1.07448 13.0406,-3.40659 2.26741,3.37182 -0.99038,9.56384 -0.99038,9.56384 0,0 5.68686,-2.26986 7.73299,-12.30067 5.50691,-2.0117 16.15379,-12.32518 16.53225,-14.83791 0.37847,-2.51273 -10.90106,-14.74206 -13.51361,-17.76675 -2.46679,-2.85595 -23.99952,-6.79391 -25.63312,-9.16757 -1.49124,-2.16681 -51.84133,-3.7622 -56.62534,-1.24228 -4.78401,2.51989 -16.22701,18.54284 -21.49641,33.14205 -1.17279,3.24927 -1.2401,15.17392 1.65182,21.36185 11.8425,25.33979 41.81013,40.18299 70.21016,50.39732 0.25344,-8.87839 -0.70541,-20.55715 -0.80449,-28.86594 z"
         id="path6" /><ellipse
         style="fill:#010101;fill-opacity:1;stroke:none;stroke-width:77.1359;stroke-dasharray:none;stroke-opacity:1"
         id="path7"
         cx="486.18536"
         cy="331.39221"
         rx="2.7257369"
         ry="4.5907145" /><path
         style="display:inline;fill:#000000;fill-opacity:1;stroke:none;stroke-width:0.264583px;stroke-linecap:butt;stroke-linejoin:miter;stroke-opacity:1"
         d="m 531.9018,219.48938 c 1.6156,-0.001 3.23934,0.0604 3.23934,0.0604 0,0 1.1128,-0.17924 1.2593,4.22817 -0.12162,-11.91203 -0.5781,-19.53878 -2.75809,-21.46947 -2.90786,1.45865 -0.78743,1.75267 -1.74055,17.18085 z"
         id="path8" /><path
         style="display:inline;fill:#000000;fill-opacity:1;stroke:none;stroke-width:0.264583px;stroke-linecap:butt;stroke-linejoin:miter;stroke-opacity:1"
         d="m 510.03049,221.57021 c 1.19114,-1.93416 2.20727,-3.19243 3.48587,-3.54757 1.71387,0.0847 3.12155,0.0904 4.56584,0.61187 1.44712,0.52249 3.876,0.91271 3.91121,2.45086 0.0298,1.30013 -1.99067,2.1032 -3.20773,2.22072 -2.17841,0.21035 -6.40832,-0.99266 -8.75519,-1.73588 z"
         id="path9" /></g><g
       id="g14"
       transform="matrix(0.26458327,0,0,0.26458327,-0.09178616,-0.53378104)"><path
         style="font-weight:900;font-size:114.653px;line-height:1.25;font-family:Arial;-inkscape-font-specification:'Arial Heavy';letter-spacing:1.5875px;mix-blend-mode:hard-light;fill-opacity:0.416507;stroke-width:5.29167;stroke-linecap:round;stroke-linejoin:round;stroke-opacity:0.291747;paint-order:markers stroke fill;filter:url(#filter10)"
         d="m 101.85405,364.91736 8.33219,-22.69472 q 5.69619,1.64954 9.48392,0.68589 6.13867,-1.58079 9.06918,-8.24248 2.18661,-4.97065 1.05285,-8.64973 -1.16247,-3.75288 -4.2371,-5.10542 -2.92089,-1.28492 -6.35398,0.26286 -3.43309,1.54779 -9.58556,9.97246 -10.150973,13.76031 -18.70192,17.76606 -8.573488,4.057 -17.387421,0.17971 -5.790548,-2.54729 -9.449671,-8.13238 -3.687824,-5.65887 -3.655665,-13.65673 0.0035,-8.07164 5.165668,-19.80647 6.334416,-14.3995 15.028747,-19.56539 8.665631,-5.23967 20.980402,-1.53483 l -8.344512,22.44466 q -5.456356,-1.36055 -9.002159,0.44345 -3.52326,1.75276 -5.687331,6.67216 -1.78085,4.04826 -0.940257,6.86445 0.789349,2.79365 3.249051,3.87569 1.793532,0.78898 3.972258,-0.27087 2.207427,-0.98608 6.19361,-6.57177 9.9747,-13.77669 16.24222,-18.8481 6.23881,-5.14519 12.51692,-5.93072 6.30065,-0.83677 12.4499,1.86832 7.22538,3.17848 11.56508,9.85804 4.33971,6.67956 4.36088,15.25132 -0.0301,8.54922 -4.83159,19.46415 -8.43086,19.16518 -19.05608,23.29818 -10.62521,4.133 -22.42963,0.10221 z m -6.972291,-113.65649 45.705931,-62.07736 16.31954,12.01564 -15.33489,20.8277 49.77009,36.64441 -15.03615,20.42197 -49.77009,-36.64441 -15.33489,20.8277 z m 121.325291,-23.25409 -53.37076,-62.34743 32.10934,-27.48631 q 8.93108,-7.6452 14.9624,-10.15519 6.03132,-2.50999 12.49104,-0.81774 6.42333,1.64972 11.52012,7.60377 4.4415,5.18853 5.4701,10.8667 0.9922,5.63564 -0.87562,11.28765 -1.19248,3.60005 -4.65057,8.25519 4.4278,-1.80058 6.98433,-1.99931 1.71852,-0.14462 5.86532,0.65352 4.18932,0.76173 6.03477,1.54016 l 24.78626,10.10195 -21.77481,18.63973 -26.60176,-10.24279 q -5.12363,-2.02535 -7.60122,-1.8205 -3.32171,0.3379 -5.95851,2.59505 l -1.70116,1.45623 21.6614,25.30472 z m -12.39511,-53.64984 8.12303,-6.95349 q 1.3184,-1.12857 4.37536,-5.21926 1.58615,-2.02102 1.42995,-4.61395 -0.11367,-2.62933 -1.86115,-4.67072 -2.5848,-3.01956 -5.88202,-2.9974 -3.29722,0.0222 -8.57081,4.53646 l -8.46326,7.24474 z m 44.81836,-76.097797 60.27602,-31.397527 8.09508,15.540688 -37.73457,19.655786 6.02604,11.56862 35.00379,-18.233321 7.733,14.845581 -35.00379,18.23332 7.47437,14.34907 38.8269,-20.22476 8.58647,16.48405 -61.36834,31.96651 z m 92.61154,-43.744049 65.66008,-17.543029 4.52303,16.928834 -41.10515,10.982456 3.36699,12.601976 38.13044,-10.187674 4.32073,16.171634 -38.13044,10.187674 4.17622,15.630775 42.29504,-11.300369 4.7976,17.956459 -66.84996,17.86095 z m 94.18595,-22.326854 77.02012,-3.245457 0.8532,20.247845 -25.84117,1.08889 2.60202,61.750332 -25.33777,1.06768 -2.60203,-61.750334 -25.84117,1.08889 z m 158.67626,6.518771 31.74244,10.280837 -3.13716,51.474562 27.58309,-43.556938 31.63591,10.246338 -25.2881,78.07786 -19.70587,-6.3824 19.2852,-59.543687 -34.57056,54.593017 -17.84181,-5.77866 4.05309,-64.477109 -19.28519,59.543689 -19.75913,-6.39965 z m 122.17476,46.42959 57.38135,36.419569 -9.38989,14.79436 -35.92242,-22.79972 -6.98992,11.01306 33.32278,21.14974 -8.9699,14.13264 -33.32277,-21.14975 -8.6699,13.65998 36.96229,23.45972 -9.95988,15.69243 -58.42121,-37.07956 z m 85.26614,58.802659 26.42359,26.85725 q 7.81322,7.94145 10.44826,14.93024 2.67431,7.02871 1.78472,14.18675 -0.88959,7.15804 -4.82365,13.85585 -3.93406,6.6978 -9.92008,12.58716 -9.37809,9.22667 -16.68614,12.17581 -7.22888,2.94979 -14.4706,2.61374 -7.20182,-0.37531 -12.63872,-3.58654 -7.44636,-4.37561 -12.19711,-9.20433 l -26.4236,-26.85726 z m 4.53681,31.11288 -31.96532,31.44918 4.35813,4.42965 q 5.57526,5.66676 9.16811,6.84403 3.63276,1.13801 8.08041,-0.56762 4.48756,-1.7449 11.51115,-8.65508 9.29828,-9.14814 9.74632,-15.55762 0.44804,-6.40949 -6.46214,-13.43308 z m 66.06395,47.93221 14.32348,20.9958 -67.797,46.25157 -14.32347,-20.9958 z m 10.96308,119.8027 2.92502,23.03335 q -9.44997,1.7661 -17.13802,-0.0745 -7.68804,-1.84056 -13.52288,-7.08328 -5.81202,-5.19161 -10.30755,-15.26241 -5.45396,-12.21787 -5.39526,-21.56281 0.13265,-9.31663 6.56859,-18.93341 6.43595,-9.61678 20.39193,-15.84662 18.60797,-8.30646 32.98078,-2.89003 14.44674,5.44472 22.525,23.54149 6.32113,14.16046 4.20115,24.79338 -2.09716,10.68404 -12.20005,19.91457 l -13.67773,-18.41735 q 2.94587,-2.60247 4.00576,-4.48567 1.79112,-3.12922 1.96741,-6.57983 0.17629,-3.4506 -1.37547,-6.92681 -3.51427,-7.87261 -11.72449,-9.23484 -6.11795,-1.07006 -16.18874,3.42547 -12.47348,5.56807 -15.4368,11.42762 -2.91219,5.83674 0.14568,12.68692 2.96659,6.64571 8.20452,8.35383 5.26076,1.75923 13.05115,0.12089 z"
         id="text9-1"
         transform="rotate(-0.99999999,786.13442,92.474184)"
         aria-label="STREET MEDIC" /><path
         style="font-weight:900;font-size:114.653px;line-height:1.25;font-family:Arial;-inkscape-font-specification:'Arial Heavy';letter-spacing:1.5875px;mix-blend-mode:hard-light;fill:#ffffff;stroke-width:5.29167;stroke-linecap:round;stroke-linejoin:round;stroke-opacity:0.291747;paint-order:markers stroke fill;filter:url(#filter9)"
         d="m 101.85405,364.91736 8.33219,-22.69472 q 5.69619,1.64954 9.48392,0.68589 6.13867,-1.58079 9.06918,-8.24248 2.18661,-4.97065 1.05285,-8.64973 -1.16247,-3.75288 -4.2371,-5.10542 -2.92089,-1.28492 -6.35398,0.26286 -3.43309,1.54779 -9.58556,9.97246 -10.150973,13.76031 -18.70192,17.76606 -8.573488,4.057 -17.387421,0.17971 -5.790548,-2.54729 -9.449671,-8.13238 -3.687824,-5.65887 -3.655665,-13.65673 0.0035,-8.07164 5.165668,-19.80647 6.334416,-14.3995 15.028747,-19.56539 8.665631,-5.23967 20.980402,-1.53483 l -8.344512,22.44466 q -5.456356,-1.36055 -9.002159,0.44345 -3.52326,1.75276 -5.687331,6.67216 -1.78085,4.04826 -0.940257,6.86445 0.789349,2.79365 3.249051,3.87569 1.793532,0.78898 3.972258,-0.27087 2.207427,-0.98608 6.19361,-6.57177 9.9747,-13.77669 16.24222,-18.8481 6.23881,-5.14519 12.51692,-5.93072 6.30065,-0.83677 12.4499,1.86832 7.22538,3.17848 11.56508,9.85804 4.33971,6.67956 4.36088,15.25132 -0.0301,8.54922 -4.83159,19.46415 -8.43086,19.16518 -19.05608,23.29818 -10.62521,4.133 -22.42963,0.10221 z m -6.972291,-113.65649 45.705931,-62.07736 16.31954,12.01564 -15.33489,20.8277 49.77009,36.64441 -15.03615,20.42197 -49.77009,-36.64441 -15.33489,20.8277 z m 121.325291,-23.25409 -53.37076,-62.34743 32.10934,-27.48631 q 8.93108,-7.6452 14.9624,-10.15519 6.03132,-2.50999 12.49104,-0.81774 6.42333,1.64972 11.52012,7.60377 4.4415,5.18853 5.4701,10.8667 0.9922,5.63564 -0.87562,11.28765 -1.19248,3.60005 -4.65057,8.25519 4.4278,-1.80058 6.98433,-1.99931 1.71852,-0.14462 5.86532,0.65352 4.18932,0.76173 6.03477,1.54016 l 24.78626,10.10195 -21.77481,18.63973 -26.60176,-10.24279 q -5.12363,-2.02535 -7.60122,-1.8205 -3.32171,0.3379 -5.95851,2.59505 l -1.70116,1.45623 21.6614,25.30472 z m -12.39511,-53.64984 8.12303,-6.95349 q 1.3184,-1.12857 4.37536,-5.21926 1.58615,-2.02102 1.42995,-4.61395 -0.11367,-2.62933 -1.86115,-4.67072 -2.5848,-3.01956 -5.88202,-2.9974 -3.29722,0.0222 -8.57081,4.53646 l -8.46326,7.24474 z m 44.81836,-76.097797 60.27602,-31.397527 8.09508,15.540688 -37.73457,19.655786 6.02604,11.56862 35.00379,-18.233321 7.733,14.845581 -35.00379,18.23332 7.47437,14.34907 38.8269,-20.22476 8.58647,16.48405 -61.36834,31.96651 z m 92.61154,-43.744049 65.66008,-17.543029 4.52303,16.928834 -41.10515,10.982456 3.36699,12.601976 38.13044,-10.187674 4.32073,16.171634 -38.13044,10.187674 4.17622,15.630775 42.29504,-11.300369 4.7976,17.956459 -66.84996,17.86095 z m 94.18595,-22.326854 77.02012,-3.245457 0.8532,20.247845 -25.84117,1.08889 2.60202,61.750332 -25.33777,1.06768 -2.60203,-61.750334 -25.84117,1.08889 z m 158.67626,6.518771 31.74244,10.280837 -3.13716,51.474562 27.58309,-43.556938 31.63591,10.246338 -25.2881,78.07786 -19.70587,-6.3824 19.2852,-59.543687 -34.57056,54.593017 -17.84181,-5.77866 4.05309,-64.477109 -19.28519,59.543689 -19.75913,-6.39965 z m 122.17476,46.42959 57.38135,36.419569 -9.38989,14.79436 -35.92242,-22.79972 -6.98992,11.01306 33.32278,21.14974 -8.9699,14.13264 -33.32277,-21.14975 -8.6699,13.65998 36.96229,23.45972 -9.95988,15.69243 -58.42121,-37.07956 z m 85.26614,58.802659 26.42359,26.85725 q 7.81322,7.94145 10.44826,14.93024 2.67431,7.02871 1.78472,14.18675 -0.88959,7.15804 -4.82365,13.85585 -3.93406,6.6978 -9.92008,12.58716 -9.37809,9.22667 -16.68614,12.17581 -7.22888,2.94979 -14.4706,2.61374 -7.20182,-0.37531 -12.63872,-3.58654 -7.44636,-4.37561 -12.19711,-9.20433 l -26.4236,-26.85726 z m 4.53681,31.11288 -31.96532,31.44918 4.35813,4.42965 q 5.57526,5.66676 9.16811,6.84403 3.63276,1.13801 8.08041,-0.56762 4.48756,-1.7449 11.51115,-8.65508 9.29828,-9.14814 9.74632,-15.55762 0.44804,-6.40949 -6.46214,-13.43308 z m 66.06395,47.93221 14.32348,20.9958 -67.797,46.25157 -14.32347,-20.9958 z m 10.96308,119.8027 2.92502,23.03335 q -9.44997,1.7661 -17.13802,-0.0745 -7.68804,-1.84056 -13.52288,-7.08328 -5.81202,-5.19161 -10.30755,-15.26241 -5.45396,-12.21787 -5.39526,-21.56281 0.13265,-9.31663 6.56859,-18.93341 6.43595,-9.61678 20.39193,-15.84662 18.60797,-8.30646 32.98078,-2.89003 14.44674,5.44472 22.525,23.54149 6.32113,14.16046 4.20115,24.79338 -2.09716,10.68404 -12.20005,19.91457 l -13.67773,-18.41735 q 2.94587,-2.60247 4.00576,-4.48567 1.79112,-3.12922 1.96741,-6.57983 0.17629,-3.4506 -1.37547,-6.92681 -3.51427,-7.87261 -11.72449,-9.23484 -6.11795,-1.07006 -16.18874,3.42547 -12.47348,5.56807 -15.4368,11.42762 -2.91219,5.83674 0.14568,12.68692 2.96659,6.64571 8.20452,8.35383 5.26076,1.75923 13.05115,0.12089 z"
         id="text9"
         transform="rotate(-1,497.43433,208.86549)"
         aria-label="STREET MEDIC" /><path
         style="font-weight:900;font-size:114.653px;line-height:1.25;font-family:Arial;-inkscape-font-specification:'Arial Heavy';letter-spacing:7.9375px;mix-blend-mode:hard-light;fill-opacity:0.564299;stroke-width:5.29167;stroke-linecap:round;stroke-linejoin:round;stroke-opacity:0.291747;paint-order:markers stroke fill;filter:url(#filter9-0-4)"
         d="m 264.99977,809.00761 66.46083,39.05881 -10.26819,17.47191 -22.2984,-13.1047 -31.31513,53.28449 -21.86402,-12.84941 31.31513,-53.28449 -22.2984,-13.1047 z m 119.50229,57.3058 23.98404,8.06672 -15.59803,46.37623 q -2.32007,6.89806 -6.56583,12.32154 -4.17486,5.38827 -10.34392,8.452 -6.09815,3.02852 -11.76368,3.19026 -7.87868,0.24427 -17.69516,-3.05737 -5.67764,-1.9096 -12.14882,-4.97206 -6.41812,-3.04462 -10.14314,-6.89632 -3.70717,-3.90477 -6.01114,-9.52297 -2.25092,-5.60036 -2.07786,-10.68077 0.26993,-8.17825 2.19738,-13.90895 l 15.59803,-46.37623 23.98404,8.06671 -15.97281,47.49054 q -2.14161,6.36744 0.14691,11.15355 2.35943,4.75088 8.62075,6.8568 6.20826,2.08806 10.88824,-0.23615 4.75089,-2.35943 6.92819,-8.833 z m 80.28952,63.63076 21.34624,9.13393 q -3.25921,9.04426 -8.73743,14.74363 -5.47822,5.69936 -12.9529,8.07859 -7.41903,2.38542 -18.38006,1.16612 -13.29789,-1.47926 -21.32806,-6.25918 -7.96835,-4.82937 -13.00558,-15.24714 -5.03724,-10.41778 -3.34755,-25.60743 2.25292,-20.25285 14.19831,-29.90806 12.00722,-9.70465 31.70368,-7.51362 15.4122,1.71444 23.51007,8.92401 8.15351,7.21575 11.00184,20.60075 l -22.80674,2.4762 q -0.75375,-3.85784 -1.84159,-5.72503 -1.79246,-3.12846 -4.67935,-5.02678 -2.88688,-1.89833 -6.67038,-2.3192 -8.56852,-0.95316 -13.89845,5.43864 -4.01909,4.73511 -5.23839,15.69614 -1.51019,13.57609 2.04392,19.09731 3.56029,5.46559 11.01602,6.29496 7.23316,0.80461 11.3572,-2.84859 4.17969,-3.64701 6.7092,-11.19525 z m 32.02713,8.58983 23.89752,-3.65846 q 1.30513,5.78482 3.97753,8.6368 4.34775,4.61294 11.5965,3.96356 5.40868,-0.48454 8.0834,-3.25347 2.72548,-2.82969 2.42576,-6.17527 -0.28473,-3.1783 -3.29749,-5.43772 -3.01277,-2.25942 -13.36083,-3.58067 -16.95104,-2.24731 -24.58699,-7.80223 -7.6917,-5.54992 -8.55088,-15.14058 -0.56446,-6.30083 2.56039,-12.20148 3.17561,-5.96141 10.19539,-9.79408 7.07054,-3.89343 19.83949,-5.03734 15.66845,-1.40367 24.38962,3.71679 8.77192,5.0597 11.47211,17.63302 l -23.68447,3.52696 q -1.44244,-5.43528 -4.73401,-7.66972 -3.2358,-2.23944 -8.58873,-1.7599 -4.405,0.39463 -6.46555,2.49026 -2.06554,2.03988 -1.82577,4.71634 0.17483,1.95159 2.15477,3.34801 1.92917,1.45719 8.7452,2.25175 16.8803,2.08502 24.34722,5.12577 7.51768,2.97998 11.23627,8.09894 3.77436,5.11396 4.37379,11.80512 0.70433,7.8621 -3.05049,14.88712 -3.75481,7.02503 -11.25145,11.18146 -7.50164,4.10067 -19.37843,5.16465 -20.8541,1.86823 -29.6028,-5.44184 -8.74869,-7.31007 -10.91707,-19.59379 z m 82.1641,-21.63931 q -5.86685,-19.22249 1.57363,-33.19984 7.44047,-13.97735 26.55588,-19.8115 19.59731,-5.98124 33.41854,1.33128 13.80489,7.25899 19.59002,26.21376 4.19994,13.76095 2.23802,24.01757 -1.92471,10.18673 -9.20254,17.79295 -7.24062,7.53633 -20.30549,11.52382 -13.27905,4.05286 -23.29785,2.48662 -9.96525,-1.58259 -18.16776,-9.08815 -8.20251,-7.50556 -12.40245,-21.26651 z m 24.28836,-7.29591 q 3.62797,11.88689 9.60381,15.74065 6.02939,3.83742 13.63272,1.51683 7.8175,-2.38596 10.54856,-8.78006 2.73106,-6.39411 -1.28912,-19.56607 -3.38283,-11.08372 -9.43308,-14.79771 -6.01305,-3.78388 -13.66992,-1.44695 -7.3356,2.23888 -10.19461,8.7891 -2.859,6.55023 0.80164,18.54421 z m 48.57901,-58.74347 20.58978,-11.69785 49.29675,24.21061 -22.42782,-39.47591 20.78449,-11.80847 40.54151,71.35842 -20.78448,11.80848 -48.98479,-24.00153 22.26189,39.18386 -20.73581,11.78082 z"
         id="text9-12-6"
         transform="rotate(-0.99999999,815.50575,248.67513)"
         aria-label="TUCSON" /><path
         style="font-weight:900;font-size:114.653px;line-height:1.25;font-family:Arial;-inkscape-font-specification:'Arial Heavy';letter-spacing:7.9375px;mix-blend-mode:hard-light;fill:#ffffff;stroke-width:5.29167;stroke-linecap:round;stroke-linejoin:round;stroke-opacity:0.291747;paint-order:markers stroke fill;filter:url(#filter9-0)"
         d="m 264.99977,809.00761 66.46083,39.05881 -10.26819,17.47191 -22.2984,-13.1047 -31.31513,53.28449 -21.86402,-12.84941 31.31513,-53.28449 -22.2984,-13.1047 z m 119.50229,57.3058 23.98404,8.06672 -15.59803,46.37623 q -2.32007,6.89806 -6.56583,12.32154 -4.17486,5.38827 -10.34392,8.452 -6.09815,3.02852 -11.76368,3.19026 -7.87868,0.24427 -17.69516,-3.05737 -5.67764,-1.9096 -12.14882,-4.97206 -6.41812,-3.04462 -10.14314,-6.89632 -3.70717,-3.90477 -6.01114,-9.52297 -2.25092,-5.60036 -2.07786,-10.68077 0.26993,-8.17825 2.19738,-13.90895 l 15.59803,-46.37623 23.98404,8.06671 -15.97281,47.49054 q -2.14161,6.36744 0.14691,11.15355 2.35943,4.75088 8.62075,6.8568 6.20826,2.08806 10.88824,-0.23615 4.75089,-2.35943 6.92819,-8.833 z m 80.28952,63.63076 21.34624,9.13393 q -3.25921,9.04426 -8.73743,14.74363 -5.47822,5.69936 -12.9529,8.07859 -7.41903,2.38542 -18.38006,1.16612 -13.29789,-1.47926 -21.32806,-6.25918 -7.96835,-4.82937 -13.00558,-15.24714 -5.03724,-10.41778 -3.34755,-25.60743 2.25292,-20.25285 14.19831,-29.90806 12.00722,-9.70465 31.70368,-7.51362 15.4122,1.71444 23.51007,8.92401 8.15351,7.21575 11.00184,20.60075 l -22.80674,2.4762 q -0.75375,-3.85784 -1.84159,-5.72503 -1.79246,-3.12846 -4.67935,-5.02678 -2.88688,-1.89833 -6.67038,-2.3192 -8.56852,-0.95316 -13.89845,5.43864 -4.01909,4.73511 -5.23839,15.69614 -1.51019,13.57609 2.04392,19.09731 3.56029,5.46559 11.01602,6.29496 7.23316,0.80461 11.3572,-2.84859 4.17969,-3.64701 6.7092,-11.19525 z m 32.02713,8.58983 23.89752,-3.65846 q 1.30513,5.78482 3.97753,8.6368 4.34775,4.61294 11.5965,3.96356 5.40868,-0.48454 8.0834,-3.25347 2.72548,-2.82969 2.42576,-6.17527 -0.28473,-3.1783 -3.29749,-5.43772 -3.01277,-2.25942 -13.36083,-3.58067 -16.95104,-2.24731 -24.58699,-7.80223 -7.6917,-5.54992 -8.55088,-15.14058 -0.56446,-6.30083 2.56039,-12.20148 3.17561,-5.96141 10.19539,-9.79408 7.07054,-3.89343 19.83949,-5.03734 15.66845,-1.40367 24.38962,3.71679 8.77192,5.0597 11.47211,17.63302 l -23.68447,3.52696 q -1.44244,-5.43528 -4.73401,-7.66972 -3.2358,-2.23944 -8.58873,-1.7599 -4.405,0.39463 -6.46555,2.49026 -2.06554,2.03988 -1.82577,4.71634 0.17483,1.95159 2.15477,3.34801 1.92917,1.45719 8.7452,2.25175 16.8803,2.08502 24.34722,5.12577 7.51768,2.97998 11.23627,8.09894 3.77436,5.11396 4.37379,11.80512 0.70433,7.8621 -3.05049,14.88712 -3.75481,7.02503 -11.25145,11.18146 -7.50164,4.10067 -19.37843,5.16465 -20.8541,1.86823 -29.6028,-5.44184 -8.74869,-7.31007 -10.91707,-19.59379 z m 82.1641,-21.63931 q -5.86685,-19.22249 1.57363,-33.19984 7.44047,-13.97735 26.55588,-19.8115 19.59731,-5.98124 33.41854,1.33128 13.80489,7.25899 19.59002,26.21376 4.19994,13.76095 2.23802,24.01757 -1.92471,10.18673 -9.20254,17.79295 -7.24062,7.53633 -20.30549,11.52382 -13.27905,4.05286 -23.29785,2.48662 -9.96525,-1.58259 -18.16776,-9.08815 -8.20251,-7.50556 -12.40245,-21.26651 z m 24.28836,-7.29591 q 3.62797,11.88689 9.60381,15.74065 6.02939,3.83742 13.63272,1.51683 7.8175,-2.38596 10.54856,-8.78006 2.73106,-6.39411 -1.28912,-19.56607 -3.38283,-11.08372 -9.43308,-14.79771 -6.01305,-3.78388 -13.66992,-1.44695 -7.3356,2.23888 -10.19461,8.7891 -2.859,6.55023 0.80164,18.54421 z m 48.57901,-58.74347 20.58978,-11.69785 49.29675,24.21061 -22.42782,-39.47591 20.78449,-11.80847 40.54151,71.35842 -20.78448,11.80848 -48.98479,-24.00153 22.26189,39.18386 -20.73581,11.78082 z"
         id="text9-12"
         transform="rotate(-0.99999999,551.2531,433.17978)"
         aria-label="TUCSON" /></g></g></svg>
