<?xml version="1.0" encoding="UTF-8" standalone="no"?>
<svg
   xmlns-xlink="http://www.w3.org/1999/xlink"
   width="190"
   zoomAndPan="magnify"
   viewBox="0 0 142.5 142.5"
   height="190"
   preserveAspectRatio="xMidYMid"
   version="1.0"
   id="svg41"
   sodipodi:docname="donate.svg"
   inkscape:version="1.3.2 (091e20e, 2023-11-25, custom)"
   xmlns:inkscape="http://www.inkscape.org/namespaces/inkscape"
   xmlns:sodipodi="http://sodipodi.sourceforge.net/DTD/sodipodi-0.dtd"
   xmlns="http://www.w3.org/2000/svg"
   xmlns:svg="http://www.w3.org/2000/svg">
  <sodipodi:namedview
     id="namedview41"
     pagecolor="#ffffff"
     bordercolor="#666666"
     borderopacity="1.0"
     inkscape:showpageshadow="2"
     inkscape:pageopacity="0.0"
     inkscape:pagecheckerboard="0"
     inkscape:deskcolor="#d1d1d1"
     inkscape:zoom="2.5699497"
     inkscape:cx="82.102774"
     inkscape:cy="78.211647"
     inkscape:window-width="1368"
     inkscape:window-height="842"
     inkscape:window-x="-6"
     inkscape:window-y="-6"
     inkscape:window-maximized="1"
     inkscape:current-layer="svg41" />
  <defs
     id="defs10">
    <g
       id="g1" />
    <clipPath
       id="e0c809b2f1">
      <path
         d="M 1,1 H 140.75 V 140.75 H 1 Z m 0,0"
         clip-rule="nonzero"
         id="path1" />
    </clipPath>
    <clipPath
       id="cde614e936">
      <path
         d="M 0,11.230469 V 130.25391 c 0,6.19921 5.027344,11.23046 11.230469,11.23046 H 130.25391 c 6.19921,0 11.23046,-5.03125 11.23046,-11.23046 V 11.230469 c 0,-2.980469 -1.18359,-5.835938 -3.28906,-7.941407 C 136.08594,1.183594 133.23047,0 130.25391,0 H 11.230469 C 5.027344,0 0,5.027344 0,11.230469 Z m 0,0"
         clip-rule="nonzero"
         id="path2" />
    </clipPath>
    <clipPath
       id="45d52349ce">
      <path
         d="M 12.128906,0.898438 H 129.35547 c 6.19922,0 11.23047,5.027343 11.23047,11.230468 V 129.35547 c 0,6.19922 -5.03125,11.23047 -11.23047,11.23047 H 12.128906 c -6.203125,0 -11.230468,-5.03125 -11.230468,-11.23047 V 12.128906 c 0,-6.203125 5.027343,-11.230468 11.230468,-11.230468 z m 0,0"
         clip-rule="nonzero"
         id="path3" />
    </clipPath>
    <clipPath
       id="4894170a10">
      <path
         d="m 0.75,0.75 h 140 v 140 h -140 z m 0,0"
         clip-rule="nonzero"
         id="path4" />
    </clipPath>
    <clipPath
       id="8c5f2d8ae3">
      <path
         d="M 0,11.230469 V 130.25391 c 0,6.19921 5.027344,11.23046 11.230469,11.23046 H 130.25391 c 6.19921,0 11.23046,-5.03125 11.23046,-11.23046 V 11.230469 c 0,-2.980469 -1.18359,-5.835938 -3.28906,-7.941407 C 136.08594,1.183594 133.23047,0 130.25391,0 H 11.230469 C 5.027344,0 0,5.027344 0,11.230469 Z m 0,0"
         clip-rule="nonzero"
         id="path5" />
    </clipPath>
    <clipPath
       id="ac10fba9b1">
      <path
         d="M 12.128906,0.898438 H 129.35547 c 6.19922,0 11.23047,5.027343 11.23047,11.230468 V 129.35547 c 0,6.19922 -5.03125,11.23047 -11.23047,11.23047 H 12.128906 c -6.203125,0 -11.230468,-5.03125 -11.230468,-11.23047 V 12.128906 c 0,-6.203125 5.027343,-11.230468 11.230468,-11.230468 z m 0,0"
         clip-rule="nonzero"
         id="path6" />
    </clipPath>
    <clipPath
       id="5aa31041b3">
      <path
         d="M 0,0 H 141.49609 V 141.49609 H 0 Z m 0,0"
         clip-rule="nonzero"
         id="path7" />
    </clipPath>
    <clipPath
       id="0a23b3155a">
      <path
         d="M 0,11.230469 V 130.25391 c 0,6.19921 5.027344,11.23046 11.230469,11.23046 H 130.25391 c 6.19921,0 11.23046,-5.03125 11.23046,-11.23046 V 11.230469 c 0,-2.980469 -1.18359,-5.835938 -3.28906,-7.941407 C 136.08594,1.183594 133.23047,0 130.25391,0 H 11.230469 C 5.027344,0 0,5.027344 0,11.230469 Z m 0,0"
         clip-rule="nonzero"
         id="path8" />
    </clipPath>
    <clipPath
       id="869d9e7ff7">
      <path
         d="M 0,11.230469 V 130.24609 c 0,6.20313 5.027344,11.23047 11.230469,11.23047 H 130.24609 c 6.20313,0 11.23047,-5.02734 11.23047,-11.23047 V 11.230469 C 141.47656,8.25 140.29297,5.394531 138.1875,3.289062 136.08203,1.183594 133.22656,0 130.24609,0 H 11.230469 C 5.027344,0 0,5.027344 0,11.230469 Z m 0,0"
         clip-rule="nonzero"
         id="path9" />
    </clipPath>
    <clipPath
       id="6e9f87648a">
      <path
         d="M 18.136719,46.816406 H 123.69922 V 132.91406 H 18.136719 Z m 0,0"
         clip-rule="nonzero"
         id="path10" />
    </clipPath>
  </defs>
  <path
     stroke-linecap="butt"
     fill="none"
     stroke-linejoin="miter"
     d="M 2.2139022,13.174131 V 129.32587 c 0,6.05385 4.9063702,10.96023 10.9602288,10.96023 H 129.32587 c 6.05386,0 10.96023,-4.90638 10.96023,-10.96023 V 13.174131 c 0,-2.90875 -1.15511,-5.6955068 -3.20992,-7.7503115 -2.0548,-2.0548047 -4.84157,-3.2099173 -7.75031,-3.2099173 H 13.174131 c -6.0538586,0 -10.9602288,4.9063701 -10.9602288,10.9602288 z m 0,0"
     stroke="#000000"
     stroke-width="8"
     stroke-opacity="1"
     stroke-miterlimit="4"
     id="path16"
     inkscape:label="Frame"
     style="stroke-width:2.92781;stroke-dasharray:none" />
  <path
     fill="#283891"
     d="m 35.856188,127.5 c -0.493574,0 -0.987147,-0.24679 -1.233934,-0.6816 L 18.902331,99.879476 C 18.471434,99.201793 18.71822,98.339993 19.395904,97.967858 L 29.62776,91.990134 c 1.606073,-0.92447 2.405192,1.355369 3.392339,3.020199 1.233933,-0.865711 2.526626,-1.790182 3.697884,-2.651977 9.7422,-6.906111 18.990826,-13.440083 32.736455,-5.488066 0.987147,0.309463 15.782598,-1.72359 22.626034,2.651978 4.931817,-3.0202 13.870988,-9.495414 18.740128,-3.451097 5.24128,-2.221081 10.60398,-2.405192 12.88383,3.388421 0.24679,0.556248 0.0627,1.296609 -0.49358,1.66483 -4.74378,3.266987 -8.93916,6.34986 -12.63705,9.123278 -18.125107,13.50275 -27.311058,20.34619 -57.579646,12.33149 l -7.211656,4.25414 c 0.740361,1.23393 1.911618,2.71074 1.664831,3.63521 -0.125352,0.30945 -0.309462,0.61892 -0.677684,0.80303 l -10.235773,6.0404 C 36.287085,127.43732 36.102974,127.5 35.856188,127.5 Z m 45.24815,-43.403123 c -0.368221,0 -0.677684,-0.121435 -0.983229,-0.368222 C 70.069446,73.676993 59.712238,63.261026 59.712238,52.657031 59.712238,46.369846 64.832083,41.25 71.119269,41.25 c 4.931817,0 7.767906,2.342516 9.985069,5.98164 2.283756,-3.639124 5.057169,-5.98164 10.051663,-5.98164 6.287185,0 11.403109,5.119846 11.403109,11.407031 0,10.603995 -10.415962,21.019962 -20.467624,31.071624 -0.246787,0.246787 -0.615009,0.368222 -0.987148,0.368222 z M 71.119269,44.027331 c -4.747707,0 -8.629702,3.881993 -8.629702,8.6297 0,9.123274 9.307386,18.740122 18.614771,28.051424 9.373979,-9.311302 18.681364,-18.92815 18.681364,-28.051424 0,-4.747707 -3.881995,-8.6297 -8.629701,-8.6297 -4.070023,0 -6.228428,1.72359 -8.755053,6.780758 -0.556249,0.987147 -2.033052,0.987147 -2.526626,0 -2.530544,-5.057168 -4.747707,-6.780758 -8.755053,-6.780758 z m -36.681126,53.384275 9.926311,16.953854 7.70523,-4.497 c 0.368221,-0.18803 0.74036,-0.24679 1.108581,-0.12535 29.406794,7.88934 37.668273,1.7275 55.730715,-11.775252 3.45501,-2.526625 7.337,-5.425391 11.71257,-8.508266 -0.55233,-0.924471 -1.35537,-1.539479 -2.27983,-1.848942 -4.74771,-1.355369 -13.56152,4.869141 -18.802805,8.629697 -1.539479,1.049828 -3.881995,2.961446 -4.806466,2.961446 l -20.530305,0.06268 c -1.790182,0 -1.848941,-2.777329 0,-2.777329 L 93.373165,96.365699 C 92.389935,86.192605 70.257474,90.630849 68.345856,89.522268 54.165412,81.076677 45.782498,89.64762 34.438143,97.411606 Z m 8.26148,19.605824 C 38.44549,110.05257 34.069922,102.28467 29.874547,95.131774 l -7.826664,4.563595 14.301878,24.474971 7.830582,-4.56359 z M 94.297634,91.496561 c 0.865713,1.045906 1.480721,2.342515 1.727508,3.760565 3.823236,-2.651983 7.767898,-5.609506 12.143468,-7.955939 -3.32574,-2.894848 -10.357202,1.911618 -13.870976,4.195374 z m 0,0"
     fill-opacity="1"
     fill-rule="evenodd"
     id="path19"
     inkscape:label="Symbol"
     style="stroke-width:1.00282" />
  <text
     xml:space="preserve"
     style="font-style:normal;font-variant:normal;font-weight:bold;font-stretch:normal;font-size:14px;line-height:1.25;font-family:Arial;-inkscape-font-specification:'Arial Bold';stroke-width:0.75;fill:#ed1c24;fill-opacity:1"
     x="42.057129"
     y="28.942383"
     id="text41"
     inkscape:label="Title"><tspan
       sodipodi:role="line"
       id="tspan41"
       style="font-style:normal;font-variant:normal;font-weight:bold;font-stretch:normal;font-size:14px;font-family:Arial;-inkscape-font-specification:'Arial Bold';stroke-width:0.75;fill:#ed1c24;fill-opacity:1"
       x="42.057129"
       y="28.942383">DONATE</tspan></text>
</svg>
