<?xml version="1.0" encoding="UTF-8" standalone="no"?>
<svg
   xmlns-xlink="http://www.w3.org/1999/xlink"
   width="190"
   zoomAndPan="magnify"
   viewBox="0 0 142.5 142.5"
   height="190"
   preserveAspectRatio="xMidYMid"
   version="1.0"
   id="svg50"
   sodipodi:docname="request.svg"
   inkscape:version="1.3.2 (091e20e, 2023-11-25, custom)"
   xmlns:inkscape="http://www.inkscape.org/namespaces/inkscape"
   xmlns:sodipodi="http://sodipodi.sourceforge.net/DTD/sodipodi-0.dtd"
   xmlns="http://www.w3.org/2000/svg"
   xmlns:svg="http://www.w3.org/2000/svg">
  <sodipodi:namedview
     id="namedview50"
     pagecolor="#ffffff"
     bordercolor="#666666"
     borderopacity="1.0"
     inkscape:showpageshadow="2"
     inkscape:pageopacity="0.0"
     inkscape:pagecheckerboard="0"
     inkscape:deskcolor="#d1d1d1"
     inkscape:zoom="2.3641218"
     inkscape:cx="109.55442"
     inkscape:cy="112.93834"
     inkscape:window-width="1368"
     inkscape:window-height="842"
     inkscape:window-x="-6"
     inkscape:window-y="-6"
     inkscape:window-maximized="1"
     inkscape:current-layer="svg50" />
  <defs
     id="defs10">
    <g
       id="g1" />
    <clipPath
       id="ac132ba0be">
      <path
         d="M 1.191406,1 H 140 V 140 H 1.191406 Z m 0,0"
         clip-rule="nonzero"
         id="path1" />
    </clipPath>
    <clipPath
       id="7c38065f89">
      <path
         d="M 0.441406,11.230469 V 129.36719 c 0,6.20312 5.027344,11.23047 11.230469,11.23047 H 129.80859 c 6.20313,0 11.23047,-5.02735 11.23047,-11.23047 V 11.230469 C 141.03906,5.027344 136.01172,0 129.80859,0 H 11.671875 C 5.46875,0 0.441406,5.027344 0.441406,11.230469 Z m 0,0"
         clip-rule="nonzero"
         id="path2" />
    </clipPath>
    <clipPath
       id="0a0aaff919">
      <path
         d="M 12.570312,0.898438 H 128.91016 c 6.20312,0 11.23046,5.027343 11.23046,11.230468 V 128.46875 c 0,6.20312 -5.02734,11.23047 -11.23046,11.23047 H 12.570312 c -6.203124,0 -11.230468,-5.02735 -11.230468,-11.23047 V 12.128906 c 0,-6.203125 5.027344,-11.230468 11.230468,-11.230468 z m 0,0"
         clip-rule="nonzero"
         id="path3" />
    </clipPath>
    <clipPath
       id="71bc701868">
      <path
         d="M 1.191406,0.75 H 140.44531 V 140 H 1.191406 Z m 0,0"
         clip-rule="nonzero"
         id="path4" />
    </clipPath>
    <clipPath
       id="2b18279faa">
      <path
         d="M 0.441406,11.230469 V 129.36719 c 0,6.20312 5.027344,11.23047 11.230469,11.23047 H 129.80859 c 6.20313,0 11.23047,-5.02735 11.23047,-11.23047 V 11.230469 C 141.03906,5.027344 136.01172,0 129.80859,0 H 11.671875 C 5.46875,0 0.441406,5.027344 0.441406,11.230469 Z m 0,0"
         clip-rule="nonzero"
         id="path5" />
    </clipPath>
    <clipPath
       id="3bc09fdbd7">
      <path
         d="M 12.570312,0.898438 H 128.91016 c 6.20312,0 11.23046,5.027343 11.23046,11.230468 V 128.46875 c 0,6.20312 -5.02734,11.23047 -11.23046,11.23047 H 12.570312 c -6.203124,0 -11.230468,-5.02735 -11.230468,-11.23047 V 12.128906 c 0,-6.203125 5.027344,-11.230468 11.230468,-11.230468 z m 0,0"
         clip-rule="nonzero"
         id="path6" />
    </clipPath>
    <clipPath
       id="93ea6580a5">
      <path
         d="M 0.441406,0 H 141.18359 V 140.74219 H 0.441406 Z m 0,0"
         clip-rule="nonzero"
         id="path7" />
    </clipPath>
    <clipPath
       id="252d372ef6">
      <path
         d="M 0.441406,11.230469 V 129.36719 c 0,6.20312 5.027344,11.23047 11.230469,11.23047 H 129.80859 c 6.20313,0 11.23047,-5.02735 11.23047,-11.23047 V 11.230469 C 141.03906,5.027344 136.01172,0 129.80859,0 H 11.671875 C 5.46875,0 0.441406,5.027344 0.441406,11.230469 Z m 0,0"
         clip-rule="nonzero"
         id="path8" />
    </clipPath>
    <clipPath
       id="9c2b74d5f4">
      <path
         d="M 0.441406,11.230469 V 129.35937 c 0,6.19922 5.027344,11.23047 11.230469,11.23047 H 129.80078 c 6.20313,0 11.23047,-5.03125 11.23047,-11.23047 V 11.230469 C 141.03125,5.027344 136.00391,0 129.80078,0 H 11.671875 C 5.46875,0 0.441406,5.027344 0.441406,11.230469 Z m 0,0"
         clip-rule="nonzero"
         id="path9" />
    </clipPath>
    <clipPath
       id="6da14dad7f">
      <path
         d="M 22.839844,38.917969 H 114.17969 V 130.25781 H 22.839844 Z m 0,0"
         clip-rule="nonzero"
         id="path10" />
    </clipPath>
  </defs>
  <path
     stroke-linecap="butt"
     fill="none"
     stroke-linejoin="miter"
     d="M 2.2187453,13.247333 V 129.25267 c 0,6.08777 4.9369686,11.02858 11.0285827,11.02858 H 129.25266 c 6.09162,0 11.02859,-4.94081 11.02859,-11.02858 V 13.247333 c 0,-6.0916143 -4.93697,-11.0285829 -11.02859,-11.0285829 H 13.247328 c -6.0916141,0 -11.0285827,4.9369686 -11.0285827,11.0285829 z m 0,0"
     stroke="#000000"
     stroke-width="8"
     stroke-opacity="1"
     stroke-miterlimit="4"
     id="path16"
     style="display:inline;stroke-width:2.9375;stroke-dasharray:none"
     inkscape:label="Frame" />
  <g
     id="g50"
     inkscape:label="Symbol"
     transform="matrix(0.94504363,0,0,0.94504363,6.5366584,4.4745138)">
    <path
       fill="#283891"
       d="m 39.40625,47.277344 c -4.519531,0 -8.199219,3.679687 -8.199219,8.199218 v 58.144528 c 0,4.51954 3.679688,8.19532 8.199219,8.19532 h 58.140625 c 4.519535,0 8.199215,-3.67578 8.199215,-8.19532 V 55.476562 c 0,-4.519531 -3.67968,-8.199218 -8.199215,-8.199218 z M 97.546875,130.17969 H 39.40625 c -9.132812,0 -16.5625,-7.42969 -16.5625,-16.5586 V 55.476562 c 0,-9.132812 7.429688,-16.5625 16.5625,-16.5625 h 58.140625 c 9.132815,0 16.562505,7.429688 16.562505,16.5625 v 58.144528 c 0,9.12891 -7.42969,16.5586 -16.562505,16.5586"
       fill-opacity="1"
       fill-rule="nonzero"
       id="path19"
       inkscape:label="Box" />
    <path
       id="path20"
       inkscape:label="Cross"
       d="m 58.43799,54.011719 v 20.58252 H 37.85547 V 94.5 h 20.58252 v 20.58545 H 78.343751 V 94.5 h 20.58252 V 74.594239 h -20.58252 v -20.58252 z"
       style="fill:#283891;fill-opacity:1" />
  </g>
  <text
     xml:space="preserve"
     style="font-style:normal;font-variant:normal;font-weight:bold;font-stretch:normal;font-size:14px;line-height:1.25;font-family:Arial;-inkscape-font-specification:'Arial Bold';stroke-width:0.75;fill:#ed1c24;fill-opacity:1"
     x="37.042969"
     y="28.942383"
     id="text1"><tspan
       sodipodi:role="line"
       id="tspan1"
       style="font-style:normal;font-variant:normal;font-weight:bold;font-stretch:normal;font-size:14px;font-family:Arial;-inkscape-font-specification:'Arial Bold';stroke-width:0.75;fill:#ed1c24;fill-opacity:1"
       x="37.042969"
       y="28.942383">REQUEST</tspan></text>
</svg>
