<?xml version="1.0" encoding="UTF-8" standalone="no"?>
<svg
   xmlns-xlink="http://www.w3.org/1999/xlink"
   width="190"
   zoomAndPan="magnify"
   viewBox="0 0 142.5 142.5"
   height="190"
   preserveAspectRatio="xMidYMid"
   version="1.0"
   id="svg62"
   sodipodi:docname="volunteer.svg"
   inkscape:version="1.3.2 (091e20e, 2023-11-25, custom)"
   xmlns:inkscape="http://www.inkscape.org/namespaces/inkscape"
   xmlns:sodipodi="http://sodipodi.sourceforge.net/DTD/sodipodi-0.dtd"
   xmlns="http://www.w3.org/2000/svg"
   xmlns:svg="http://www.w3.org/2000/svg">
  <sodipodi:namedview
     id="namedview62"
     pagecolor="#ffffff"
     bordercolor="#666666"
     borderopacity="1.0"
     inkscape:showpageshadow="2"
     inkscape:pageopacity="0.0"
     inkscape:pagecheckerboard="0"
     inkscape:deskcolor="#d1d1d1"
     inkscape:zoom="2.6137566"
     inkscape:cx="94.117409"
     inkscape:cy="94.5"
     inkscape:window-width="1368"
     inkscape:window-height="842"
     inkscape:window-x="-6"
     inkscape:window-y="-6"
     inkscape:window-maximized="1"
     inkscape:current-layer="svg62" />
  <defs
     id="defs10">
    <rect
       x="25.251013"
       y="16.451418"
       width="136.96761"
       height="59.684212"
       id="rect62" />
    <g
       id="g1" />
    <clipPath
       id="041dcc0988">
      <path
         d="M 1,1 H 140.75 V 140.75 H 1 Z m 0,0"
         clip-rule="nonzero"
         id="path1" />
    </clipPath>
    <clipPath
       id="3b0a09abfc">
      <path
         d="M 0,11.230469 V 130.25391 c 0,6.19921 5.027344,11.23046 11.230469,11.23046 H 130.25391 c 6.19921,0 11.23046,-5.03125 11.23046,-11.23046 V 11.230469 c 0,-2.980469 -1.18359,-5.835938 -3.28906,-7.941407 C 136.08594,1.183594 133.23047,0 130.25391,0 H 11.230469 C 5.027344,0 0,5.027344 0,11.230469 Z m 0,0"
         clip-rule="nonzero"
         id="path2" />
    </clipPath>
    <clipPath
       id="8cfbda456d">
      <path
         d="M 12.128906,0.898438 H 129.35547 c 6.19922,0 11.23047,5.027343 11.23047,11.230468 V 129.35547 c 0,6.19922 -5.03125,11.23047 -11.23047,11.23047 H 12.128906 c -6.203125,0 -11.230468,-5.03125 -11.230468,-11.23047 V 12.128906 c 0,-6.203125 5.027343,-11.230468 11.230468,-11.230468 z m 0,0"
         clip-rule="nonzero"
         id="path3" />
    </clipPath>
    <clipPath
       id="edc9cbb077">
      <path
         d="m 0.75,0.75 h 140 v 140 h -140 z m 0,0"
         clip-rule="nonzero"
         id="path4" />
    </clipPath>
    <clipPath
       id="95126380fc">
      <path
         d="M 0,11.230469 V 130.25391 c 0,6.19921 5.027344,11.23046 11.230469,11.23046 H 130.25391 c 6.19921,0 11.23046,-5.03125 11.23046,-11.23046 V 11.230469 c 0,-2.980469 -1.18359,-5.835938 -3.28906,-7.941407 C 136.08594,1.183594 133.23047,0 130.25391,0 H 11.230469 C 5.027344,0 0,5.027344 0,11.230469 Z m 0,0"
         clip-rule="nonzero"
         id="path5" />
    </clipPath>
    <clipPath
       id="e4bcbba478">
      <path
         d="M 12.128906,0.898438 H 129.35547 c 6.19922,0 11.23047,5.027343 11.23047,11.230468 V 129.35547 c 0,6.19922 -5.03125,11.23047 -11.23047,11.23047 H 12.128906 c -6.203125,0 -11.230468,-5.03125 -11.230468,-11.23047 V 12.128906 c 0,-6.203125 5.027343,-11.230468 11.230468,-11.230468 z m 0,0"
         clip-rule="nonzero"
         id="path6" />
    </clipPath>
    <clipPath
       id="0e87c60c71">
      <path
         d="M 0,0 H 141.49609 V 141.49609 H 0 Z m 0,0"
         clip-rule="nonzero"
         id="path7" />
    </clipPath>
    <clipPath
       id="a8f709108c">
      <path
         d="M 0,11.230469 V 130.25391 c 0,6.19921 5.027344,11.23046 11.230469,11.23046 H 130.25391 c 6.19921,0 11.23046,-5.03125 11.23046,-11.23046 V 11.230469 c 0,-2.980469 -1.18359,-5.835938 -3.28906,-7.941407 C 136.08594,1.183594 133.23047,0 130.25391,0 H 11.230469 C 5.027344,0 0,5.027344 0,11.230469 Z m 0,0"
         clip-rule="nonzero"
         id="path8" />
    </clipPath>
    <clipPath
       id="564cb29052">
      <path
         d="M 0,11.230469 V 130.24609 c 0,6.20313 5.027344,11.23047 11.230469,11.23047 H 130.24609 c 6.20313,0 11.23047,-5.02734 11.23047,-11.23047 V 11.230469 C 141.47656,8.25 140.29297,5.394531 138.1875,3.289062 136.08203,1.183594 133.22656,0 130.24609,0 H 11.230469 C 5.027344,0 0,5.027344 0,11.230469 Z m 0,0"
         clip-rule="nonzero"
         id="path9" />
    </clipPath>
    <clipPath
       id="1a9d8625d2">
      <path
         d="M 21.910156,49.507812 H 119.90625 V 136.16016 H 21.910156 Z m 0,0"
         clip-rule="nonzero"
         id="path10" />
    </clipPath>
  </defs>
  <path
     stroke-linecap="butt"
     fill="none"
     stroke-linejoin="miter"
     d="M 2.2139022,13.174131 V 129.32587 c 0,6.05386 4.9063702,10.96023 10.9602288,10.96023 H 129.32587 c 6.05386,0 10.96023,-4.90637 10.96023,-10.96023 V 13.174131 c 0,-2.90875 -1.15512,-5.6955067 -3.20992,-7.7503114 -2.05481,-2.0548048 -4.84156,-3.2099174 -7.75031,-3.2099174 H 13.174131 c -6.0538586,0 -10.9602288,4.9063702 -10.9602288,10.9602288 z m 0,0"
     stroke="#000000"
     stroke-width="8"
     stroke-opacity="1"
     stroke-miterlimit="4"
     id="path16"
     inkscape:label="Frame"
     style="stroke-width:2.928;stroke-dasharray:none" />
  <g
     id="g62"
     inkscape:label="Symbol"
     transform="matrix(0.99535676,0,0,0.99535676,0.06852263,-8.0279351)">
    <path
       fill="#283891"
       d="m 60.472656,105.34766 c -1.140625,-1.14453 -2.992187,-1.14453 -4.136718,-0.004 l -7.027344,7.02344 -1.257813,1.25781 c -1.140625,1.14453 -1.140625,2.99609 0,4.13672 1.144531,1.14062 2.996094,1.14062 4.140625,0 l 8.277344,-8.27734 c 1.144531,-1.14063 1.144531,-2.99219 0.0039,-4.13672"
       fill-opacity="1"
       fill-rule="nonzero"
       id="path19"
       inkscape:label="Right Middle" />
    <path
       fill="#283891"
       d="m 56.277344,95.390625 c -1.144532,-1.144531 -2.996094,-1.144531 -4.140625,0 l -9.902344,9.902345 c -0.550781,0.54687 -0.855469,1.29297 -0.855469,2.07031 -0.0039,0.77735 0.304688,1.52344 0.855469,2.07031 1.160156,1.10547 2.980469,1.10547 4.136719,0 l 9.90625,-9.90234 c 1.144531,-1.144531 1.144531,-3 0,-4.140625"
       fill-opacity="1"
       fill-rule="nonzero"
       id="path20"
       inkscape:label="Right Index" />
    <path
       fill="#283891"
       d="m 101.75781,105.69922 c 0.81641,1.96875 0.70313,4.19922 -0.30468,6.07422 -1.00782,1.875 -2.808599,3.19531 -4.902349,3.60156 0.679688,2.82813 -0.441406,5.78125 -2.824219,7.44922 -2.386718,1.66797 -5.546874,1.70703 -7.972656,0.0977 -1.285156,3.65625 -5.273437,5.60156 -8.949218,4.35937 -0.07031,0.0703 -0.113282,0.15625 -0.1875,0.23047 l -3.808594,3.80469 c -1.832032,1.83203 -4.519532,2.51562 -7.003906,1.78125 -2.480469,-0.73438 -4.367188,-2.76563 -4.90625,-5.29688 -0.636719,0.19141 -1.300782,0.29688 -1.964844,0.30859 -3.339844,0.004 -6.226563,-2.33203 -6.921875,-5.59765 -0.617188,0.17187 -1.253907,0.26172 -1.890625,0.26172 -3.90625,0 -7.078125,-3.16797 -7.078125,-7.07813 0,-0.45312 0.04297,-0.90625 0.128906,-1.35156 -2.292969,-0.36719 -4.261719,-1.83984 -5.261719,-3.94141 -1,-2.09765 -0.902344,-4.55468 0.261719,-6.5664 l -5.625,-5.625002 c -10.503906,-10.507813 -10.503906,-27.542969 0,-38.046876 10.507813,-10.507812 27.542969,-10.507812 38.050781,0 l 0.300782,0.300782 0.304687,-0.300782 c 7.695313,-7.695312 19.265625,-9.996093 29.324215,-5.832031 10.05079,4.164063 16.60547,13.976563 16.60547,24.859375 0.0156,7.136719 -2.82422,13.988282 -7.88672,19.019532 z m 18.14844,-26.507814 c 0,-12.046875 -7.1875,-22.8125 -18.32031,-27.421875 -3.61719,-1.5 -7.441409,-2.261719 -11.351565,-2.261719 -7.175781,0 -13.960937,2.527344 -19.335937,7.15625 -5.375,-4.628906 -12.15625,-7.15625 -19.324219,-7.15625 -7.929688,0 -15.378907,3.085938 -20.988281,8.695313 -11.570313,11.570313 -11.570313,30.398437 0,41.968755 l 4.300781,4.30078 c -0.71875,2.33203 -0.550781,4.875 0.519531,7.12109 1.019531,2.14453 2.765625,3.82031 4.882812,4.76563 0.34375,5.125 4.621094,9.1875 9.832032,9.1875 0.01953,0 0.03906,0 0.05859,0 1.660156,3.19921 5.027343,5.33593 8.796874,5.33593 0.03906,0 0.07422,0 0.109376,0 1.21875,2.32813 3.339843,4.10938 5.933593,4.875 0.90625,0.26953 1.84375,0.40235 2.789063,0.40235 2.628906,0 5.101562,-1.01954 6.960937,-2.87891 l 2.945313,-2.94531 c 0.453125,0.0625 0.90625,0.0937 1.363281,0.0937 3.148437,0 6.042969,-1.50391 7.871094,-3.9336 0.878906,0.25 1.792969,0.38282 2.71875,0.38282 2.03125,0 3.984375,-0.61719 5.648437,-1.78125 2.621094,-1.83203 4.136719,-4.73438 4.207032,-7.8125 1.847656,-0.89453 3.375006,-2.34766 4.371096,-4.19532 1.09766,-2.04687 1.4375,-4.36718 0.99219,-6.59375 l 6.31641,-6.3164 c 5.54687,-5.515628 8.72265,-13.167971 8.70312,-20.988284"
       fill-opacity="1"
       fill-rule="nonzero"
       id="path21"
       style="display:inline"
       inkscape:label="Outline" />
    <path
       fill="#283891"
       d="m 106.3125,63.097656 c -4.26562,-4.265625 -10.050781,-6.664062 -16.085938,-6.664062 -6.035156,0 -11.820312,2.398437 -16.085937,6.664062 l -15.28125,15.28125 C 61.8125,80.011719 65.488281,79.496094 67.875,77.113281 L 76.238281,68.75 c 0.800781,-0.867188 2.160157,-0.894531 2.992188,-0.05859 0.835937,0.832032 0.8125,2.191406 -0.05469,2.992188 l -5.339843,5.34375 25.363281,25.363282 7.117193,-7.117188 c 8.88281,-8.882813 8.88281,-23.289063 -0.004,-32.175782"
       fill-opacity="1"
       fill-rule="nonzero"
       id="path22"
       inkscape:label="Right Hand" />
    <path
       fill="#283891"
       d="M 69.046875,110.92188 C 68.5,110.37109 67.753906,110.0625 66.980469,110.0625 c -0.777344,0 -1.523438,0.30859 -2.070313,0.85938 l -8.046875,8.04296 c -1.140625,1.14454 -1.140625,2.99219 0,4.13672 1.144531,1.14063 2.996094,1.14063 4.136719,0 l 8.046875,-8.04297 c 1.144531,-1.14453 1.144531,-2.99609 0,-4.13671"
       fill-opacity="1"
       fill-rule="nonzero"
       id="path23"
       inkscape:label="Right Ring" />
    <path
       fill="#283891"
       d="m 70.898438,79.960938 -0.07813,0.08594 c -4.578124,4.566406 -11.988281,4.566406 -16.566406,0 -0.808594,-0.8125 -0.808594,-2.128906 0,-2.9375 L 67.964844,63.402344 67.660156,63.097656 C 58.757812,54.316406 44.4375,54.367188 35.59375,63.210938 c -8.839844,8.839843 -8.886719,23.160156 -0.105469,32.0625 l 5.445313,5.449222 8.269531,-8.269535 c 2.460937,-2.460937 6.34375,-2.769531 9.160156,-0.726563 2.816407,2.042969 3.730469,5.832032 2.160157,8.933598 2.492187,0.78515 4.347656,2.875 4.832031,5.4414 2.589843,-0.61718 5.308593,0.27344 7.03125,2.30469 1.71875,2.02734 2.15625,4.85156 1.125,7.30859 1.171875,0.3125 2.242187,0.92579 3.105469,1.77735 1.558593,1.5664 2.289062,3.77344 1.980468,5.96094 1.253906,0.21093 2.496094,-0.41407 3.078125,-1.54297 0.585938,-1.125 0.371094,-2.50391 -0.527343,-3.40235 l -4.933594,-4.93359 c -1.957032,-1.95703 0.976562,-4.89453 2.9375,-2.9375 l 8.453125,8.46094 c 1.148437,1.11328 2.976562,1.09765 4.101562,-0.0312 1.132813,-1.12891 1.148438,-2.95703 0.03516,-4.10547 l -10.62891,-10.62896 c -1.957031,-1.95703 0.980469,-4.89453 2.9375,-2.9375 l 9.097657,9.09766 h 0.0039 c 1.144531,1.14062 2.992187,1.14062 4.140625,0 1.136719,-1.14453 1.136719,-2.9961 0,-4.14063 L 70.898438,79.960938"
       fill-opacity="1"
       fill-rule="nonzero"
       id="path24"
       inkscape:label="Left Hand" />
    <path
       fill="#283891"
       d="m 69.542969,120.43359 -3.8125,3.8086 c -1.140625,1.14453 -1.140625,2.99609 0.0039,4.14062 1.140625,1.14063 2.996094,1.14063 4.136719,0 l 3.808594,-3.80859 c 1.144531,-1.14453 1.144531,-2.99609 0.0039,-4.14063 -1.144532,-1.14453 -2.996094,-1.14453 -4.140625,0"
       fill-opacity="1"
       fill-rule="nonzero"
       id="path25"
       inkscape:label="Right Pinkie" />
  </g>
  <text
     xml:space="preserve"
     transform="matrix(0.7939114,0,0,0.75000001,5.1740981,3.9934374)"
     id="text62"
     style="font-style:normal;font-variant:normal;font-weight:bold;font-stretch:normal;font-size:18.6667px;line-height:1.25;font-family:Arial;-inkscape-font-specification:'Arial Bold';letter-spacing:0px;white-space:pre;shape-inside:url(#rect62);fill:#ed1c24;fill-opacity:1"
     inkscape:label="Title"><tspan
       x="25.251953"
       y="33.265285"
       id="tspan1">VOLUNTEER</tspan></text>
</svg>
